<svg width="32" height="32" viewBox="0 0 32 32" fill="none" xmlns="http://www.w3.org/2000/svg">
<rect width="32" height="32" rx="16" fill="#0F37E2"/>
<path d="M18.6665 13.3334C19.7274 13.3334 20.7448 13.7548 21.4949 14.5049C22.2451 15.2551 22.6665 16.2725 22.6665 17.3334V22H19.9998V17.3334C19.9998 16.9798 19.8594 16.6406 19.6093 16.3906C19.3593 16.1405 19.0201 16 18.6665 16C18.3129 16 17.9737 16.1405 17.7237 16.3906C17.4736 16.6406 17.3332 16.9798 17.3332 17.3334V22H14.6665V17.3334C14.6665 16.2725 15.0879 15.2551 15.8381 14.5049C16.5882 13.7548 17.6056 13.3334 18.6665 13.3334Z" stroke="white" stroke-linecap="round" stroke-linejoin="round"/>
<path d="M12.0002 14H9.3335V22H12.0002V14Z" stroke="white" stroke-linecap="round" stroke-linejoin="round"/>
<path d="M10.6668 12C11.4032 12 12.0002 11.4031 12.0002 10.6667C12.0002 9.93033 11.4032 9.33337 10.6668 9.33337C9.93045 9.33337 9.3335 9.93033 9.3335 10.6667C9.3335 11.4031 9.93045 12 10.6668 12Z" stroke="white" stroke-linecap="round" stroke-linejoin="round"/>
</svg>
