<svg width="32" height="32" viewBox="0 0 32 32" fill="none" xmlns="http://www.w3.org/2000/svg">
<rect width="32" height="32" rx="4" fill="#D4D4D8"/>
<path d="M7 16L9 14M9 14L16 7L23 14M9 14V24C9 24.2652 9.10536 24.5196 9.29289 24.7071C9.48043 24.8946 9.73478 25 10 25H13M23 14L25 16M23 14V24C23 24.2652 22.8946 24.5196 22.7071 24.7071C22.5196 24.8946 22.2652 25 22 25H19M13 25C13.2652 25 13.5196 24.8946 13.7071 24.7071C13.8946 24.5196 14 24.2652 14 24V20C14 19.7348 14.1054 19.4804 14.2929 19.2929C14.4804 19.1054 14.7348 19 15 19H17C17.2652 19 17.5196 19.1054 17.7071 19.2929C17.8946 19.4804 18 19.7348 18 20V24C18 24.2652 18.1054 24.5196 18.2929 24.7071C18.4804 24.8946 18.7348 25 19 25M13 25H19" stroke="#3F3F46" stroke-width="2" stroke-linecap="round" stroke-linejoin="round"/>
</svg>
