<svg width="17" height="16" viewBox="0 0 17 16" fill="none" xmlns="http://www.w3.org/2000/svg">
<path d="M2.5 5.33331L7.76 8.83998C7.97911 8.98617 8.2366 9.06418 8.5 9.06418C8.7634 9.06418 9.02089 8.98617 9.24 8.83998L14.5 5.33331M3.83333 12.6666H13.1667C13.5203 12.6666 13.8594 12.5262 14.1095 12.2761C14.3595 12.0261 14.5 11.6869 14.5 11.3333V4.66665C14.5 4.31302 14.3595 3.97389 14.1095 3.72384C13.8594 3.47379 13.5203 3.33331 13.1667 3.33331H3.83333C3.47971 3.33331 3.14057 3.47379 2.89052 3.72384C2.64048 3.97389 2.5 4.31302 2.5 4.66665V11.3333C2.5 11.6869 2.64048 12.0261 2.89052 12.2761C3.14057 12.5262 3.47971 12.6666 3.83333 12.6666Z" stroke="white" stroke-width="1.33333" stroke-linecap="round" stroke-linejoin="round"/>
</svg>
