<svg width="25" height="24" viewBox="0 0 25 24" fill="none" xmlns="http://www.w3.org/2000/svg">
<path d="M9.3999 20L3.9529 17.276C3.78682 17.193 3.64712 17.0654 3.54945 16.9075C3.45179 16.7496 3.4 16.5677 3.3999 16.382V5.618C3.39999 5.44761 3.44362 5.28007 3.52665 5.13127C3.60967 4.98248 3.72934 4.85736 3.8743 4.76781C4.01925 4.67825 4.18469 4.62721 4.35491 4.61955C4.52513 4.61188 4.69448 4.64784 4.8469 4.724L9.3999 7M9.3999 20V7M9.3999 20L15.3999 17M9.3999 7L15.3999 4M15.3999 17L19.9529 19.276C20.1053 19.3522 20.2747 19.3881 20.4449 19.3805C20.6151 19.3728 20.7806 19.3218 20.9255 19.2322C21.0705 19.1426 21.1901 19.0175 21.2732 18.8687C21.3562 18.7199 21.3998 18.5524 21.3999 18.382V7.618C21.3998 7.43234 21.348 7.25037 21.2504 7.09247C21.1527 6.93458 21.013 6.80699 20.8469 6.724L15.3999 4M15.3999 17V4" stroke="#3F3F46" stroke-width="2" stroke-linecap="round" stroke-linejoin="round"/>
</svg>
