<svg width="32" height="32" viewBox="0 0 32 32" fill="none" xmlns="http://www.w3.org/2000/svg">
<rect width="32" height="32" rx="4" fill="#D4D4D8"/>
<path d="M21 24H26V22C26 21.3765 25.8057 20.7686 25.4441 20.2606C25.0826 19.7527 24.5718 19.37 23.9827 19.1658C23.3937 18.9615 22.7556 18.9459 22.1573 19.121C21.5589 19.2962 21.03 19.6534 20.644 20.143M21 24H11M21 24V22C21 21.344 20.874 20.717 20.644 20.143M20.644 20.143C20.2726 19.215 19.6318 18.4195 18.804 17.8591C17.9762 17.2988 16.9996 16.9993 16 16.9993C15.0004 16.9993 14.0238 17.2988 13.196 17.8591C12.3682 18.4195 11.7274 19.215 11.356 20.143M11 24H6V22C6.00005 21.3765 6.19434 20.7686 6.55586 20.2606C6.91739 19.7527 7.42819 19.37 8.01725 19.1658C8.60632 18.9615 9.24438 18.9459 9.84274 19.121C10.4411 19.2962 10.97 19.6534 11.356 20.143M11 24V22C11 21.344 11.126 20.717 11.356 20.143M19 11C19 11.7956 18.6839 12.5587 18.1213 13.1213C17.5587 13.6839 16.7956 14 16 14C15.2044 14 14.4413 13.6839 13.8787 13.1213C13.3161 12.5587 13 11.7956 13 11C13 10.2044 13.3161 9.44129 13.8787 8.87868C14.4413 8.31607 15.2044 8 16 8C16.7956 8 17.5587 8.31607 18.1213 8.87868C18.6839 9.44129 19 10.2044 19 11ZM25 14C25 14.5304 24.7893 15.0391 24.4142 15.4142C24.0391 15.7893 23.5304 16 23 16C22.4696 16 21.9609 15.7893 21.5858 15.4142C21.2107 15.0391 21 14.5304 21 14C21 13.4696 21.2107 12.9609 21.5858 12.5858C21.9609 12.2107 22.4696 12 23 12C23.5304 12 24.0391 12.2107 24.4142 12.5858C24.7893 12.9609 25 13.4696 25 14ZM11 14C11 14.5304 10.7893 15.0391 10.4142 15.4142C10.0391 15.7893 9.53043 16 9 16C8.46957 16 7.96086 15.7893 7.58579 15.4142C7.21071 15.0391 7 14.5304 7 14C7 13.4696 7.21071 12.9609 7.58579 12.5858C7.96086 12.2107 8.46957 12 9 12C9.53043 12 10.0391 12.2107 10.4142 12.5858C10.7893 12.9609 11 13.4696 11 14Z" stroke="#3F3F46" stroke-width="2" stroke-linecap="round" stroke-linejoin="round"/>
</svg>
