<svg width="32" height="32" viewBox="0 0 32 32" fill="none" xmlns="http://www.w3.org/2000/svg">
<rect width="32" height="32" rx="4" fill="#D4D4D8"/>
<path d="M22 13V16V13ZM22 16V19V16ZM22 16H25H22ZM22 16H19H22ZM17 11C17 12.0609 16.5786 13.0783 15.8284 13.8284C15.0783 14.5786 14.0609 15 13 15C11.9391 15 10.9217 14.5786 10.1716 13.8284C9.42143 13.0783 9 12.0609 9 11C9 9.93913 9.42143 8.92172 10.1716 8.17157C10.9217 7.42143 11.9391 7 13 7C14.0609 7 15.0783 7.42143 15.8284 8.17157C16.5786 8.92172 17 9.93913 17 11V11ZM7 24C7 22.4087 7.63214 20.8826 8.75736 19.7574C9.88258 18.6321 11.4087 18 13 18C14.5913 18 16.1174 18.6321 17.2426 19.7574C18.3679 20.8826 19 22.4087 19 24V25H7V24Z" stroke="#3F3F46" stroke-width="2" stroke-linecap="round" stroke-linejoin="round"/>
</svg>
